<svg width="42" height="42" viewBox="0 0 42 42" fill="none" xmlns="http://www.w3.org/2000/svg">
<rect width="42" height="42" rx="21" fill="#EEECF3"/>
<path d="M29.6305 13.5828L29.6305 13.5828L29.6364 13.5894C30.1162 14.1216 30.4064 14.8237 30.4064 15.5837C30.4064 15.8199 30.377 16.0454 30.3193 16.2617L30.3159 16.2746L30.3129 16.2876C30.2469 16.581 30.1288 16.8685 29.9758 17.1163L29.9757 17.1162L29.9693 17.1269C29.6114 17.7309 29.0381 18.1982 28.359 18.4122L28.3463 18.4162L28.3338 18.4207C28.0549 18.5208 27.7478 18.5734 27.4167 18.5734C26.6476 18.5734 25.9565 18.2834 25.4351 17.8066L25.4284 17.8005L25.4217 17.7946C25.2007 17.6031 25.0102 17.3754 24.8651 17.1288L24.8652 17.1287L24.8578 17.1167C24.5838 16.6723 24.4269 16.1442 24.4269 15.5837C24.4269 15.2537 24.4792 14.9395 24.5768 14.6386C24.7181 14.2078 24.956 13.8207 25.2701 13.4991L25.2709 13.4983C25.8168 12.9374 26.5786 12.5939 27.4167 12.5939C28.3013 12.5939 29.0976 12.9758 29.6305 13.5828ZM28.7811 16.9678V16.9297H28.7825C29.5472 16.9297 30.1469 16.3091 30.1469 15.5653C30.1469 14.8157 29.5322 14.2009 28.7825 14.2009H28.7808C28.7668 13.4631 28.1576 12.8626 27.4167 12.8626C26.6757 12.8626 26.0666 13.4631 26.0525 14.2009H26.0508C25.3012 14.2009 24.6864 14.8157 24.6864 15.5653C24.6864 16.315 25.3012 16.9297 26.0508 16.9297H26.0523V16.9678C26.0523 17.7175 26.667 18.3322 27.4167 18.3322C28.1663 18.3322 28.7811 17.7175 28.7811 16.9678Z" fill="#616161" stroke="#616161" stroke-width="1.35379"/>
<path d="M15.5649 28.5194C15.553 28.5089 15.5381 28.496 15.5215 28.4819C15.5205 28.481 15.5194 28.4801 15.5184 28.4792L15.9893 27.8985C16.2244 27.6085 16.5037 27.3452 16.8443 27.1207L16.8443 27.1207L16.8473 27.1187C17.9648 26.3737 19.4699 25.9812 21.007 25.9812C22.5444 25.9812 24.0438 26.3738 25.1511 27.1174L25.1511 27.1175L25.156 27.1207C25.5023 27.349 25.7862 27.6118 26.0041 27.8897L26.4666 28.4799L26.4566 28.4891C26.4309 28.5093 26.4093 28.5276 26.3923 28.5423C26.3711 28.5606 26.3599 28.5706 26.3514 28.5781C26.3421 28.5864 26.336 28.5917 26.3235 28.6022L26.3235 28.6022C26.1788 28.7228 26.0215 28.839 25.8462 28.9618L25.8461 28.9618L25.8409 28.9655C25.819 28.9812 25.799 28.996 25.7831 29.0078C25.7713 29.0167 25.7625 29.0233 25.7544 29.0292C25.7506 29.032 25.747 29.0347 25.7433 29.0374C25.7214 29.0534 25.7151 29.057 25.7152 29.057L25.6983 29.0666L25.6821 29.0771C25.5727 29.1483 25.4742 29.2056 25.3619 29.271C25.2997 29.3073 25.2332 29.346 25.1582 29.391C25.1349 29.4044 25.1136 29.4174 25.0963 29.4282L25.0692 29.445L25.0466 29.4591C25.0177 29.4771 25.0047 29.4844 24.9966 29.4884L24.9966 29.4883L24.9852 29.4942C24.8077 29.5872 24.631 29.6713 24.4552 29.7467L24.4369 29.7545L24.4191 29.7634C24.3394 29.8033 24.2983 29.8231 24.2642 29.8359L24.2495 29.8414L24.2352 29.8475C24.1282 29.8933 24.0312 29.9265 23.9126 29.967C23.848 29.9891 23.7771 30.0133 23.6947 30.043C23.5976 30.0697 23.5086 30.1031 23.4492 30.1254L23.4472 30.1262C23.3291 30.1667 23.2137 30.194 23.067 30.2287C23.011 30.242 22.9505 30.2563 22.8835 30.2728C22.8175 30.2841 22.7634 30.2991 22.7359 30.3067L22.7326 30.3076C22.7254 30.3095 22.7201 30.311 22.7159 30.3122C22.7116 30.3133 22.7086 30.3142 22.7062 30.3148L22.6962 30.3162L22.6733 30.3211C22.4469 30.3697 22.2154 30.4031 21.9663 30.4289L21.9185 30.4338L21.8718 30.4455L21.8702 30.4459L21.8647 30.4464C21.5763 30.4726 21.2859 30.4894 21.0002 30.4894C20.7304 30.4894 20.4561 30.4744 20.1745 30.4505C20.1326 30.4414 20.0717 30.4305 20.0037 30.4267C19.7626 30.4012 19.5379 30.3683 19.3178 30.3211L19.2891 30.315L19.26 30.3113C19.2457 30.3095 19.2291 30.306 19.1603 30.2863L19.1494 30.2832L19.1385 30.2805C18.9165 30.225 18.7092 30.1731 18.5039 30.1132L18.4912 30.1095L18.4785 30.1063C18.4491 30.099 18.4124 30.086 18.332 30.0559L18.3159 30.0498L18.2996 30.0446C18.1157 29.9861 17.931 29.919 17.7456 29.8432L17.7364 29.8394L17.727 29.8359C17.6929 29.8231 17.6518 29.8033 17.572 29.7634L17.5492 29.752L17.5256 29.7423C17.3488 29.67 17.1814 29.5903 17.0231 29.5035C16.9996 29.49 16.9728 29.474 16.9393 29.4538C16.9063 29.434 16.8655 29.4095 16.826 29.387L16.8152 29.3808L16.8042 29.3751C16.6365 29.2872 16.4777 29.192 16.3276 29.0896C16.2937 29.0655 16.2625 29.0438 16.235 29.0248L16.2338 29.024C16.205 29.004 16.1802 28.9868 16.1541 28.9683C16.1081 28.9344 16.0644 28.9025 16.0224 28.872C15.8904 28.7758 15.7764 28.6928 15.6677 28.6022L15.6399 28.579L15.6132 28.5613C15.6114 28.5598 15.6069 28.5561 15.5988 28.5492L15.5649 28.5194ZM14.9817 27.9477L15.3396 28.3103L15.2538 28.2309C13.5696 26.6743 12.5104 24.4588 12.5104 21.9997C12.5104 17.3227 16.3232 13.5099 21.0002 13.5099C21.8418 13.5099 22.6568 13.6312 23.4238 13.8615C23.4205 13.8692 23.4173 13.8769 23.414 13.8845C22.6478 13.6549 21.8356 13.5311 21.0002 13.5311C16.3272 13.5311 12.5316 17.3267 12.5316 21.9997C12.5316 24.3129 13.4695 26.4156 14.9817 27.9477ZM29.4899 21.9997C29.4899 24.4504 28.438 26.6587 26.7556 28.2142L27.0186 27.9477C28.5308 26.4156 29.4687 24.3129 29.4687 21.9997C29.4687 21.1564 29.3447 20.3417 29.1145 19.5741C29.1214 19.5712 29.1283 19.5683 29.1351 19.5654C29.3676 20.3355 29.4899 21.1542 29.4899 21.9997Z" fill="#616161" stroke="#616161" stroke-width="1.35379"/>
<path d="M21 17.3525C19.1025 17.3525 17.5625 18.8925 17.5625 20.79C17.5625 22.6509 19.02 24.1634 20.9542 24.2184C20.9817 24.2184 21.0183 24.2184 21.0367 24.2184C21.055 24.2184 21.0825 24.2184 21.1008 24.2184C21.11 24.2184 21.1192 24.2184 21.1192 24.2184C22.9708 24.1542 24.4283 22.6509 24.4375 20.79C24.4375 18.8925 22.8975 17.3525 21 17.3525Z" fill="#292D32"/>
</svg>
