<svg width="42" height="42" viewBox="0 0 42 42" fill="none" xmlns="http://www.w3.org/2000/svg">
<rect width="42" height="42" rx="21" fill="#EEECF3"/>
<path d="M25.8229 30.0212C25.8229 30.5333 25.4078 30.9484 24.8957 30.9484C24.3836 30.9484 23.9684 30.5333 23.9684 30.0212C23.9684 29.509 24.3836 29.0939 24.8957 29.0939C25.4078 29.0939 25.8229 29.509 25.8229 30.0212Z" fill="#616161" stroke="#616161" stroke-width="1.35379"/>
<path d="M18.4899 30.0212C18.4899 30.5333 18.0748 30.9484 17.5627 30.9484C17.0505 30.9484 16.6354 30.5333 16.6354 30.0212C16.6354 29.509 17.0505 29.0939 17.5627 29.0939C18.0748 29.0939 18.4899 29.509 18.4899 30.0212Z" fill="#616161" stroke="#616161" stroke-width="1.35379"/>
<path d="M14.4368 14.6113L14.2535 16.8572C14.2168 17.288 14.556 17.6455 14.9868 17.6455H29.021C29.406 17.6455 29.7268 17.3522 29.7543 16.9672C29.8735 15.3447 28.636 14.0247 27.0135 14.0247H15.7477C15.656 13.6213 15.4727 13.2363 15.1885 12.9155C14.7302 12.4297 14.0885 12.1455 13.4285 12.1455H11.8335C11.4577 12.1455 11.146 12.4572 11.146 12.833C11.146 13.2088 11.4577 13.5205 11.8335 13.5205H13.4285C13.7127 13.5205 13.9785 13.6397 14.171 13.8413C14.3635 14.0522 14.4552 14.3272 14.4368 14.6113Z" fill="#616161"/>
<path d="M28.8007 19.0205H14.7391C14.3541 19.0205 14.0424 19.3138 14.0057 19.6897L13.6757 23.6772C13.5474 25.2447 14.7757 26.583 16.3432 26.583H26.5366C27.9116 26.583 29.1216 25.4555 29.2224 24.0805L29.5249 19.7997C29.5616 19.378 29.2316 19.0205 28.8007 19.0205Z" fill="#616161"/>
</svg>
