<svg width="48" height="48" viewBox="0 0 48 48" fill="none" xmlns="http://www.w3.org/2000/svg">
<rect width="48" height="48" rx="24" fill="#FE6603" fill-opacity="0.12"/>
<path d="M16.583 21.9167H32.4163" stroke="#FE6603" stroke-width="1.18033" stroke-miterlimit="10" stroke-linecap="round" stroke-linejoin="round"/>
<path d="M24.1425 30.229H20.0971C17.2867 30.229 16.5742 29.5323 16.5742 26.7536V20.2461C16.5742 17.7286 17.1601 16.9211 19.3688 16.7944C19.5905 16.7865 19.8359 16.7786 20.0971 16.7786H28.8925C31.703 16.7786 32.4155 17.4752 32.4155 20.254V23.7452" stroke="#FE6603" stroke-width="1.18033" stroke-linecap="round" stroke-linejoin="round"/>
<path d="M19.75 26.6665H22.9167" stroke="#FE6603" stroke-width="1.18033" stroke-miterlimit="10" stroke-linecap="round" stroke-linejoin="round"/>
<path d="M32.4163 28.2499C32.4163 28.8437 32.2501 29.4057 31.9572 29.8807C31.4109 30.7991 30.4055 31.4166 29.2497 31.4166C28.0938 31.4166 27.0884 30.7991 26.5422 29.8807C26.2493 29.4057 26.083 28.8437 26.083 28.2499C26.083 26.5003 27.5001 25.0833 29.2497 25.0833C30.9993 25.0833 32.4163 26.5003 32.4163 28.2499Z" stroke="#FE6603" stroke-width="1.18033" stroke-miterlimit="10" stroke-linecap="round" stroke-linejoin="round"/>
<path d="M28.0166 28.2497L28.8003 29.0335L30.4866 27.4739" stroke="#FE6603" stroke-width="1.18033" stroke-linecap="round" stroke-linejoin="round"/>
</svg>
