<svg width="42" height="42" viewBox="0 0 42 42" fill="none" xmlns="http://www.w3.org/2000/svg">
<rect width="42" height="42" rx="21" fill="#EEECF3"/>
<path d="M29.2476 16.4674L29.2503 16.4677C29.2552 16.4682 29.2574 16.4692 29.2586 16.4698C29.2602 16.4707 29.2626 16.4724 29.2651 16.4754C29.2676 16.4784 29.2693 16.4816 29.2705 16.4848C29.2698 16.4857 29.2689 16.4867 29.2678 16.4876C29.263 16.492 29.2597 16.4919 29.2595 16.4919H29.2594H29.2592H29.259H29.2589H29.2587H29.2586H29.2584H29.2582H29.2581H29.2579H29.2578H29.2576H29.2574H29.2573H29.2571H29.257H29.2568H29.2566H29.2565H29.2563H29.2562H29.256H29.2559H29.2557H29.2555H29.2554H29.2552H29.2551H29.2549H29.2548H29.2546H29.2545H29.2543H29.2542H29.254H29.2538H29.2537H29.2535H29.2534H29.2532H29.2531H29.2529H29.2528H29.2526H29.2525H29.2523H29.2522H29.252H29.2519H29.2517H29.2516H29.2514H29.2512H29.2511H29.2509H29.2508H29.2506H29.2505H29.2503H29.2502H29.25H29.2499H29.2497H29.2496H29.2494H29.2493H29.2491H29.249H29.2489H29.2487H29.2486H29.2484H29.2483H29.2481H29.248H29.2478H29.2477H29.2475H29.2474H29.2472H29.2471H29.2469H29.2468H29.2466H29.2465H29.2463H29.2462H29.2461H29.2459H29.2458H29.2456H29.2455H29.2453H29.2452H29.245H29.2449H29.2447H29.2446H29.2445H29.2443H29.2442H29.244H29.2439H29.2437H29.2436H29.2435H29.2433H29.2432H29.243H29.2429H29.2427H29.2426H29.2424H29.2423H29.2422H29.242H29.2419H29.2417H29.2416H29.2415H29.2413H29.2412H29.241H29.2409H29.2407H29.2406H29.2405H29.2403H29.2402H29.24H29.2399H29.2398H29.2396H29.2395H29.2393H29.2392H29.2391H29.2389H29.2388H29.2386H29.2385H29.2384H29.2382H29.2381H29.2379H29.2378H29.2377H29.2375H29.2374H29.2372H29.2371H29.237H29.2368H29.2367H29.2366H29.2364H29.2363H29.2361H29.236H29.2359H29.2357H29.2356H29.2354H29.2353H29.2352H29.235H29.2349H29.2348H29.2346H29.2345H29.2343H29.2342H29.2341H29.2339H29.2338H29.2337H29.2335H29.2334H29.2332H29.2331H29.233H29.2328H29.2327H29.2326H29.2324H29.2323H29.2322H29.232H29.2319H29.2318H29.2316H29.2315H29.2313H29.2312H29.2311H29.2309H29.2308H29.2307H29.2305H29.2304H29.2303H29.2301H29.23H29.2299H29.2297H29.2296H29.2294H29.2293H29.2292H29.229H29.2289H29.2288H29.2286H29.2285H29.2284H29.2282H29.2281H29.228H29.2278H29.2277H29.2276H29.2274H29.2273H29.2271H29.227H29.2269H29.2267H29.2266H29.2265H29.2263H29.2262H29.2261H29.2259H29.2258H29.2257H29.2255H29.2254H29.2253H29.2251H29.225H29.2249H29.2247H29.2246H29.2245H29.2243H29.2242H29.2241H29.2239H29.2238H29.2237H29.2235H29.2234H29.2233H29.2231H29.223H29.2228H29.2227H29.2226H29.2224H29.2223H29.2222H29.222H29.2219H29.2218H29.2216H29.2215H29.2214H29.2212H29.2211H29.221H29.2208H29.2207H29.2206H29.2204H29.2203H29.2202H29.22H29.2199C24.3471 16.006 19.4702 15.8212 14.618 16.3027C14.6179 16.3027 14.6178 16.3027 14.6177 16.3028L12.7503 16.4858C12.7502 16.4858 12.7501 16.4859 12.7499 16.4859C12.7433 16.4864 12.7404 16.4855 12.7399 16.4854C12.7389 16.4851 12.7383 16.4847 12.7379 16.4844L12.7374 16.4838L12.7372 16.4833C12.737 16.4829 12.7367 16.4818 12.7365 16.4798C12.7363 16.4777 12.7366 16.477 12.7367 16.4767L12.7367 16.4766C12.7369 16.4758 12.7376 16.4744 12.7389 16.4728C12.7402 16.4712 12.7416 16.4702 12.7427 16.4696C12.7434 16.4692 12.7454 16.4682 12.7504 16.4677L12.7522 16.4675L14.6214 16.2843C14.6216 16.2842 14.6218 16.2842 14.622 16.2842C15.4617 16.2029 16.3032 16.1486 17.1573 16.0935L17.6945 16.0588L17.7816 15.5276L17.9741 14.3548C17.9741 14.3547 17.9741 14.3546 17.9741 14.3545C18.0519 13.8829 18.1227 13.5411 18.3279 13.2882C18.4956 13.0816 18.8542 12.8224 19.7903 12.8224H22.192C23.1239 12.8224 23.486 13.0898 23.6574 13.305C23.8664 13.5676 23.9352 13.9156 24.0081 14.3628L24.0081 14.3628L24.0088 14.3668L24.201 15.5024V16.095L24.8403 16.1305C26.3168 16.2126 27.7828 16.3218 29.2476 16.4674Z" fill="#616161" stroke="#616161" stroke-width="1.35379"/>
<path d="M26.7934 18.7804C26.9175 18.7804 27.0417 18.831 27.1343 18.9247C27.2216 19.0223 27.2709 19.1536 27.2635 19.293C27.2635 19.2934 27.2634 19.2939 27.2634 19.2943L26.6955 28.6829C26.6423 29.4219 26.5821 29.9976 26.2721 30.4218C26.0045 30.7879 25.4268 31.1858 23.9426 31.1858H18.0576C16.5746 31.1858 15.9965 30.7864 15.7285 30.4188C15.418 29.9931 15.3579 29.4169 15.3047 28.6828L14.7367 19.2841C14.7367 19.2838 14.7367 19.2835 14.7367 19.2832C14.7295 19.1538 14.7784 19.0197 14.8707 18.9193C14.9452 18.8384 15.0719 18.7804 15.2068 18.7804H26.7934ZM19.4693 27.9471H22.5218C23.2714 27.9471 23.8862 27.3324 23.8862 26.5827C23.8862 25.833 23.2714 25.2183 22.5218 25.2183H19.4693C18.7196 25.2183 18.1049 25.833 18.1049 26.5827C18.1049 27.3324 18.7196 27.9471 19.4693 27.9471ZM18.7084 24.2804H23.2918C24.0414 24.2804 24.6562 23.6657 24.6562 22.916C24.6562 22.1663 24.0414 21.5516 23.2918 21.5516H18.7084C17.9588 21.5516 17.344 22.1663 17.344 22.916C17.344 23.6657 17.9588 24.2804 18.7084 24.2804Z" fill="#616161" stroke="#616161" stroke-width="1.35379"/>
</svg>
