<svg width="42" height="42" viewBox="0 0 42 42" fill="none" xmlns="http://www.w3.org/2000/svg">
<rect width="42" height="42" rx="21" fill="#EEECF3"/>
<path d="M25.985 18.3994L25.985 18.3994H25.9779C24.9496 18.3994 24.1339 17.5756 24.1339 16.6288V13.6339C25.0457 14.5467 26.3483 15.8612 27.4957 17.0191C28.0004 17.5284 28.4751 18.0074 28.8733 18.4085C27.8894 18.4085 26.7905 18.4079 25.985 18.3994ZM29.0945 19.0854C29.617 19.0854 29.892 18.4713 29.5254 18.1046C29.0965 17.6728 28.5574 17.1288 27.9785 16.5445C26.7752 15.3303 25.3996 13.9422 24.4837 13.0263C24.1079 12.6504 23.457 12.9071 23.457 13.4296V16.6288C23.457 17.9671 24.5937 19.0763 25.9779 19.0763C26.8486 19.0854 28.0584 19.0854 29.0942 19.0854H29.0945Z" fill="#616161" stroke="#616161" stroke-width="1.35379"/>
<path d="M26.1428 21.0174H28.792C28.9223 21.0174 29.0318 21.1268 29.0318 21.2572V26.0605C29.0318 27.5307 28.5239 28.6214 27.7511 29.3472C26.9716 30.0794 25.8695 30.4894 24.6028 30.4894H17.3978C16.1312 30.4894 15.0291 30.0794 14.2496 29.3472C13.4767 28.6214 12.9689 27.5307 12.9689 26.0605V17.9388C12.9689 16.4686 13.4767 15.378 14.2496 14.6521C15.0291 13.92 16.1312 13.5099 17.3978 13.5099H21.2845C21.4148 13.5099 21.5243 13.6193 21.5243 13.7497V16.3988C21.5243 18.9452 23.5965 21.0174 26.1428 21.0174ZM16.8753 27.9474H20.542C21.2917 27.9474 21.9064 27.3327 21.9064 26.583C21.9064 25.8333 21.2917 25.2186 20.542 25.2186H16.8753C16.1257 25.2186 15.5109 25.8333 15.5109 26.583C15.5109 27.3327 16.1257 27.9474 16.8753 27.9474ZM16.8753 24.2807H22.3753C23.125 24.2807 23.7397 23.666 23.7397 22.9163C23.7397 22.1667 23.125 21.5519 22.3753 21.5519H16.8753C16.1257 21.5519 15.5109 22.1667 15.5109 22.9163C15.5109 23.666 16.1257 24.2807 16.8753 24.2807Z" fill="#616161" stroke="#616161" stroke-width="1.35379"/>
</svg>
