<svg width="42" height="42" viewBox="0 0 42 42" fill="none" xmlns="http://www.w3.org/2000/svg">
<rect width="42" height="42" rx="21" fill="#EEECF3"/>
<path d="M18.07 12.7061C15.692 12.7061 13.7588 14.6393 13.7588 17.0172C13.7588 19.3498 15.5831 21.2377 17.9611 21.3193C18.0337 21.3103 18.1063 21.3103 18.1607 21.3193C18.1789 21.3193 18.188 21.3193 18.2061 21.3193C18.2152 21.3193 18.2152 21.3193 18.2243 21.3193C20.5478 21.2377 22.3721 19.3498 22.3812 17.0172C22.3812 14.6393 20.4479 12.7061 18.07 12.7061Z" fill="#616161"/>
<path d="M22.6805 23.7329C20.1482 22.0448 16.0186 22.0448 13.4682 23.7329C12.3155 24.5044 11.6802 25.5482 11.6802 26.6645C11.6802 27.7809 12.3155 28.8156 13.4591 29.578C14.7298 30.4311 16.3998 30.8577 18.0698 30.8577C19.7398 30.8577 21.4098 30.4311 22.6805 29.578C23.8241 28.8065 24.4594 27.7718 24.4594 26.6464C24.4503 25.53 23.8241 24.4953 22.6805 23.7329Z" fill="#616161"/>
<path d="M28.0448 17.5514C28.19 19.3122 26.9375 20.8551 25.204 21.0639C25.1949 21.0639 25.1949 21.0639 25.1858 21.0639H25.1586C25.1041 21.0639 25.0497 21.0639 25.0043 21.082C24.1239 21.1274 23.3161 20.8461 22.708 20.3287C23.6429 19.4937 24.1783 18.2412 24.0694 16.8798C24.0059 16.1446 23.7518 15.473 23.3706 14.9012C23.7155 14.7287 24.1148 14.6198 24.5232 14.5835C26.3022 14.4292 27.8905 15.7543 28.0448 17.5514Z" fill="#616161"/>
<path d="M29.8601 25.9479C29.7874 26.8283 29.2247 27.5907 28.2808 28.108C27.3732 28.6072 26.2296 28.8432 25.0951 28.8159C25.7486 28.226 26.1298 27.4908 26.2024 26.7103C26.2931 25.5848 25.7576 24.5048 24.6866 23.6425C24.0785 23.1615 23.3706 22.7803 22.5991 22.4989C24.605 21.918 27.1281 22.3083 28.6802 23.5608C29.5152 24.2325 29.9417 25.0766 29.8601 25.9479Z" fill="#616161"/>
</svg>
