<svg width="42" height="42" viewBox="0 0 42 42" fill="none" xmlns="http://www.w3.org/2000/svg">
<rect width="42" height="42" rx="21" fill="#F5F5F5"/>
<path d="M27.75 28.499H14.25C13.9425 28.499 13.6875 28.244 13.6875 27.9365C13.6875 27.629 13.9425 27.374 14.25 27.374H27.75C28.0575 27.374 28.3125 27.629 28.3125 27.9365C28.3125 28.244 28.0575 28.499 27.75 28.499Z" fill="#616161"/>
<path d="M26.2649 14.6093C24.8099 13.1543 23.3849 13.1168 21.8924 14.6093L20.9849 15.5168C20.9099 15.5918 20.8799 15.7118 20.9099 15.8168C21.4799 17.8043 23.0699 19.3943 25.0574 19.9643C25.0874 19.9718 25.1174 19.9793 25.1474 19.9793C25.2299 19.9793 25.3049 19.9493 25.3649 19.8893L26.2649 18.9818C27.0074 18.2468 27.3674 17.5343 27.3674 16.8143C27.3749 16.0718 27.0149 15.3518 26.2649 14.6093Z" fill="#616161"/>
<path d="M23.7077 20.6471C23.4902 20.5421 23.2802 20.4371 23.0777 20.3171C22.9127 20.2196 22.7552 20.1146 22.5977 20.0021C22.4702 19.9196 22.3202 19.7996 22.1777 19.6796C22.1627 19.6721 22.1102 19.6271 22.0502 19.5671C21.8027 19.3571 21.5252 19.0871 21.2777 18.7871C21.2552 18.7721 21.2177 18.7196 21.1652 18.6521C21.0902 18.5621 20.9627 18.4121 20.8502 18.2396C20.7602 18.1271 20.6552 17.9621 20.5577 17.7971C20.4377 17.5946 20.3327 17.3921 20.2277 17.1821C20.0901 16.8871 19.7029 16.7995 19.4727 17.0297L15.2552 21.2471C15.1577 21.3446 15.0677 21.5321 15.0452 21.6596L14.6402 24.5321C14.5652 25.0421 14.7077 25.5221 15.0227 25.8446C15.2927 26.1071 15.6677 26.2496 16.0727 26.2496C16.1627 26.2496 16.2527 26.2421 16.3427 26.2271L19.2227 25.8221C19.3577 25.7996 19.5452 25.7096 19.6352 25.6121L23.8596 21.3877C24.0852 21.1621 24.0005 20.774 23.7077 20.6471Z" fill="#292D32"/>
</svg>
