<svg width="25" height="25" viewBox="0 0 25 25" fill="none" xmlns="http://www.w3.org/2000/svg">
<path d="M22.59 9.83L20.59 8.83C20.22 8.65 19.76 8.79 19.58 9.16C19.39 9.54 19.54 9.99 19.91 10.17L21.5 10.96V15.75L17.75 15.76V5.5C17.75 3.5 16.41 2.5 14.75 2.5H6.75C5.09 2.5 3.75 3.5 3.75 5.5V21.75H2.25C1.84 21.75 1.5 22.09 1.5 22.5C1.5 22.91 1.84 23.25 2.25 23.25H19.25C19.66 23.25 20 22.91 20 22.5C20 22.09 19.66 21.75 19.25 21.75H17.75V17.26L22.25 17.25C22.67 17.25 23 16.91 23 16.5V10.5C23 10.22 22.84 9.96 22.59 9.83ZM6.25 7.39C6.25 6 7.1 5.5 8.14 5.5H13.37C14.4 5.5 15.25 6 15.25 7.39V8.62C15.25 10 14.4 10.5 13.36 10.5H8.14C7.1 10.5 6.25 10 6.25 8.61V7.39ZM6.75 12.75H9.75C10.16 12.75 10.5 13.09 10.5 13.5C10.5 13.91 10.16 14.25 9.75 14.25H6.75C6.34 14.25 6 13.91 6 13.5C6 13.09 6.34 12.75 6.75 12.75Z" fill="#292D32"/>
</svg>
