<svg width="24" height="25" viewBox="0 0 24 25" fill="none" xmlns="http://www.w3.org/2000/svg">
<path d="M3.5 22.5V5.5C3.5 3.5 4.84 2.5 6.5 2.5H14.5C16.16 2.5 17.5 3.5 17.5 5.5V22.5H3.5Z" stroke="#9DB2CE" stroke-width="1.5" stroke-linecap="round" stroke-linejoin="round"/>
<path d="M2 22.5H19" stroke="#9DB2CE" stroke-width="1.5" stroke-linecap="round" stroke-linejoin="round"/>
<path d="M8.39 10.5H12.62C13.66 10.5 14.51 9.99999 14.51 8.60999V7.37999C14.51 5.98999 13.66 5.48999 12.62 5.48999H8.39C7.35 5.48999 6.5 5.98999 6.5 7.37999V8.60999C6.5 9.99999 7.35 10.5 8.39 10.5Z" stroke="#9DB2CE" stroke-width="1.5" stroke-linecap="round" stroke-linejoin="round"/>
<path d="M6.5 13.5H9.5" stroke="#9DB2CE" stroke-width="1.5" stroke-linecap="round" stroke-linejoin="round"/>
<path d="M17.5 16.51L22 16.5V10.5L20 9.5" stroke="#9DB2CE" stroke-width="1.5" stroke-linecap="round" stroke-linejoin="round"/>
</svg>
