<svg width="24" height="25" viewBox="0 0 24 25" fill="none" xmlns="http://www.w3.org/2000/svg">
<path d="M20.0402 7.31994L14.2802 3.28994C12.7102 2.18994 10.3002 2.24994 8.79023 3.41994L3.78023 7.32994C2.78023 8.10994 1.99023 9.70994 1.99023 10.9699V17.8699C1.99023 20.4199 4.06023 22.4999 6.61023 22.4999H17.3902C19.9402 22.4999 22.0102 20.4299 22.0102 17.8799V11.0999C22.0102 9.74994 21.1402 8.08994 20.0402 7.31994ZM12.7502 18.4999C12.7502 18.9099 12.4102 19.2499 12.0002 19.2499C11.5902 19.2499 11.2502 18.9099 11.2502 18.4999V15.4999C11.2502 15.0899 11.5902 14.7499 12.0002 14.7499C12.4102 14.7499 12.7502 15.0899 12.7502 15.4999V18.4999Z" fill="#010E0E"/>
</svg>
