<svg width="53" height="53" viewBox="0 0 53 53" fill="none" xmlns="http://www.w3.org/2000/svg">
<rect width="53" height="53" rx="26.5" fill="#EEF0F1"/>
<path d="M36.1663 33.4167V36.1667H17.833V33.4167C17.833 32.9125 18.2455 32.5 18.7497 32.5H35.2497C35.7538 32.5 36.1663 32.9125 36.1663 33.4167Z" fill="#292D32" stroke="#292D32" stroke-width="1.35379" stroke-miterlimit="10" stroke-linecap="round" stroke-linejoin="round"/>
<path d="M21.2599 31.8231V26.7603H21.7394V31.8231H21.2599Z" fill="#292D32" stroke="#292D32" stroke-width="1.35379"/>
<path d="M26.0833 26.0834H24.25V32.5H26.0833V26.0834Z" fill="#292D32"/>
<path d="M29.7503 26.0834H27.917V32.5H29.7503V26.0834Z" fill="#292D32"/>
<path d="M33.4163 26.0834H31.583V32.5H33.4163V26.0834Z" fill="#292D32"/>
<path d="M37.0837 36.8542H16.917C16.5412 36.8542 16.2295 36.5426 16.2295 36.1667C16.2295 35.7909 16.5412 35.4792 16.917 35.4792H37.0837C37.4595 35.4792 37.7712 35.7909 37.7712 36.1667C37.7712 36.5426 37.4595 36.8542 37.0837 36.8542Z" fill="#292D32"/>
<path d="M35.5888 21.2709L27.3388 17.9709C27.1555 17.8976 26.8438 17.8976 26.6605 17.9709L18.4105 21.2709C18.0897 21.3992 17.833 21.7751 17.833 22.1234V25.1667C17.833 25.6709 18.2455 26.0834 18.7497 26.0834H35.2497C35.7538 26.0834 36.1663 25.6709 36.1663 25.1667V22.1234C36.1663 21.7751 35.9097 21.3992 35.5888 21.2709ZM26.9997 23.7917C26.2388 23.7917 25.6247 23.1776 25.6247 22.4167C25.6247 21.6559 26.2388 21.0417 26.9997 21.0417C27.7605 21.0417 28.3747 21.6559 28.3747 22.4167C28.3747 23.1776 27.7605 23.7917 26.9997 23.7917Z" fill="#292D32"/>
</svg>
