<svg width="25" height="25" viewBox="0 0 25 25" fill="none" xmlns="http://www.w3.org/2000/svg">
<path d="M13.5 9.5H7.5" stroke="#9DB2CE" stroke-width="1.5" stroke-linecap="round" stroke-linejoin="round"/>
<path d="M22.5002 11.4699V13.53C22.5002 14.08 22.0602 14.5299 21.5002 14.5499H19.5402C18.4602 14.5499 17.4702 13.7599 17.3802 12.6799C17.3202 12.0499 17.5602 11.4599 17.9802 11.0499C18.3502 10.6699 18.8602 10.45 19.4202 10.45H21.5002C22.0602 10.47 22.5002 10.9199 22.5002 11.4699Z" stroke="#9DB2CE" stroke-width="1.5" stroke-linecap="round" stroke-linejoin="round"/>
<path d="M17.98 11.05C17.56 11.46 17.32 12.05 17.38 12.68C17.47 13.76 18.46 14.55 19.54 14.55H21.5V16C21.5 19 19.5 21 16.5 21H7.5C4.5 21 2.5 19 2.5 16V9C2.5 6.28 4.14 4.38 6.69 4.06C6.95 4.02 7.22 4 7.5 4H16.5C16.76 4 17.01 4.00999 17.25 4.04999C19.83 4.34999 21.5 6.26 21.5 9V10.45H19.42C18.86 10.45 18.35 10.67 17.98 11.05Z" stroke="#9DB2CE" stroke-width="1.5" stroke-linecap="round" stroke-linejoin="round"/>
</svg>
