<svg width="57" height="57" viewBox="0 0 57 57" fill="none" xmlns="http://www.w3.org/2000/svg">
<path d="M57 28.5C57 44.2401 44.2401 57 28.5 57C12.7599 57 0 44.2401 0 28.5C0 12.7599 12.7599 0 28.5 0C44.2401 0 57 12.7599 57 28.5ZM19.4373 28.5C19.4373 33.5052 23.4948 37.5627 28.5 37.5627C33.5052 37.5627 37.5627 33.5052 37.5627 28.5C37.5627 23.4948 33.5052 19.4373 28.5 19.4373C23.4948 19.4373 19.4373 23.4948 19.4373 28.5Z" fill="#EBF9F1"/>
<path d="M29.0003 15.6665C21.6537 15.6665 15.667 21.6532 15.667 28.9998C15.667 36.3465 21.6537 42.3332 29.0003 42.3332C36.347 42.3332 42.3337 36.3465 42.3337 28.9998C42.3337 21.6532 36.347 15.6665 29.0003 15.6665ZM35.3737 25.9332L27.8137 33.4932C27.627 33.6798 27.3737 33.7865 27.107 33.7865C26.8403 33.7865 26.587 33.6798 26.4003 33.4932L22.627 29.7198C22.2403 29.3332 22.2403 28.6932 22.627 28.3065C23.0137 27.9198 23.6537 27.9198 24.0403 28.3065L27.107 31.3732L33.9603 24.5198C34.347 24.1332 34.987 24.1332 35.3737 24.5198C35.7603 24.9065 35.7603 25.5332 35.3737 25.9332Z" fill="#33B469"/>
</svg>
