<svg width="25" height="25" viewBox="0 0 25 25" fill="none" xmlns="http://www.w3.org/2000/svg">
<path d="M22.5002 11.4702V13.5302C22.5002 14.0802 22.0602 14.5302 21.5002 14.5502H19.5402C18.4602 14.5502 17.4702 13.7602 17.3802 12.6802C17.3202 12.0502 17.5602 11.4602 17.9802 11.0502C18.3502 10.6702 18.8602 10.4502 19.4202 10.4502H21.5002C22.0602 10.4702 22.5002 10.9202 22.5002 11.4702Z" fill="#292D32"/>
<path d="M20.97 16.05H19.54C17.64 16.05 16.04 14.62 15.88 12.8C15.79 11.76 16.17 10.72 16.93 9.98C17.57 9.32 18.46 8.95 19.42 8.95H20.97C21.26 8.95 21.5 8.71 21.47 8.42C21.25 5.99 19.64 4.33 17.25 4.05C17.01 4.01 16.76 4 16.5 4H7.5C7.22 4 6.95 4.02 6.69 4.06C4.14 4.38 2.5 6.28 2.5 9V16C2.5 18.76 4.74 21 7.5 21H16.5C19.3 21 21.23 19.25 21.47 16.58C21.5 16.29 21.26 16.05 20.97 16.05ZM13.5 10.25H7.5C7.09 10.25 6.75 9.91 6.75 9.5C6.75 9.09 7.09 8.75 7.5 8.75H13.5C13.91 8.75 14.25 9.09 14.25 9.5C14.25 9.91 13.91 10.25 13.5 10.25Z" fill="#292D32"/>
</svg>
