<svg width="42" height="42" viewBox="0 0 42 42" fill="none" xmlns="http://www.w3.org/2000/svg">
<rect width="42" height="42" rx="21" fill="#EEECF3"/>
<path d="M25.9845 18.3994L25.9845 18.3994H25.9774C24.9491 18.3994 24.1334 17.5756 24.1334 16.6288V13.6339C25.0452 14.5467 26.3478 15.8612 27.4953 17.0191C28 17.5284 28.4746 18.0074 28.8728 18.4085C27.8889 18.4085 26.79 18.4079 25.9845 18.3994ZM29.094 19.0854C29.6165 19.0854 29.8915 18.4713 29.5249 18.1046C29.0961 17.6728 28.557 17.1288 27.978 16.5445C26.7747 15.3303 25.3991 13.9422 24.4832 13.0263C24.1074 12.6504 23.4565 12.9071 23.4565 13.4296V16.6288C23.4565 17.9671 24.5932 19.0763 25.9774 19.0763C26.8481 19.0854 28.058 19.0854 29.0937 19.0854H29.094Z" fill="#616161" stroke="#616161" stroke-width="1.35379"/>
<path d="M26.1423 21.0174H28.7915C28.9218 21.0174 29.0313 21.1268 29.0313 21.2572V26.0605C29.0313 27.5307 28.5234 28.6214 27.7506 29.3472C26.9711 30.0794 25.869 30.4894 24.6023 30.4894H17.3973C16.1307 30.4894 15.0286 30.0794 14.2491 29.3472C13.4762 28.6214 12.9684 27.5307 12.9684 26.0605V17.9388C12.9684 16.4686 13.4762 15.378 14.2491 14.6521C15.0286 13.92 16.1307 13.5099 17.3973 13.5099H21.284C21.4143 13.5099 21.5238 13.6193 21.5238 13.7497V16.3988C21.5238 18.9452 23.596 21.0174 26.1423 21.0174ZM16.8748 27.9474H20.5415C21.2912 27.9474 21.9059 27.3327 21.9059 26.583C21.9059 25.8333 21.2912 25.2186 20.5415 25.2186H16.8748C16.1252 25.2186 15.5104 25.8333 15.5104 26.583C15.5104 27.3327 16.1252 27.9474 16.8748 27.9474ZM16.8748 24.2807H22.3748C23.1245 24.2807 23.7392 23.666 23.7392 22.9163C23.7392 22.1667 23.1245 21.5519 22.3748 21.5519H16.8748C16.1252 21.5519 15.5104 22.1667 15.5104 22.9163C15.5104 23.666 16.1252 24.2807 16.8748 24.2807Z" fill="#616161" stroke="#616161" stroke-width="1.35379"/>
</svg>
