<svg width="56" height="56" viewBox="0 0 56 56" fill="none" xmlns="http://www.w3.org/2000/svg">
<rect width="56" height="56" rx="28" fill="#FE6603"/>
<path d="M20.2598 27.0199V31.9899C20.2598 33.8099 20.2598 33.8099 21.9798 34.9699L26.7098 37.6999C27.4198 38.1099 28.5798 38.1099 29.2898 37.6999L34.0198 34.9699C35.7398 33.8099 35.7398 33.8099 35.7398 31.9899V27.0199C35.7398 25.1999 35.7398 25.1999 34.0198 24.0399L29.2898 21.3099C28.5798 20.8999 27.4198 20.8999 26.7098 21.3099L21.9798 24.0399C20.2598 25.1999 20.2598 25.1999 20.2598 27.0199Z" stroke="white" stroke-width="1.5" stroke-linecap="round" stroke-linejoin="round"/>
<path d="M33.5 23.63V21C33.5 19 32.5 18 30.5 18H25.5C23.5 18 22.5 19 22.5 21V23.56" stroke="white" stroke-width="1.5" stroke-linecap="round" stroke-linejoin="round"/>
<path d="M28.6298 26.99L29.1998 27.88C29.2898 28.02 29.4898 28.16 29.6398 28.2L30.6598 28.46C31.2898 28.62 31.4598 29.16 31.0498 29.66L30.3798 30.47C30.2798 30.6 30.1998 30.83 30.2098 30.99L30.2698 32.04C30.3098 32.69 29.8498 33.02 29.2498 32.78L28.2698 32.39C28.1198 32.33 27.8698 32.33 27.7198 32.39L26.7398 32.78C26.1398 33.02 25.6798 32.68 25.7198 32.04L25.7798 30.99C25.7898 30.83 25.7098 30.59 25.6098 30.47L24.9398 29.66C24.5298 29.16 24.6998 28.62 25.3298 28.46L26.3498 28.2C26.5098 28.16 26.7098 28.01 26.7898 27.88L27.3598 26.99C27.7198 26.45 28.2798 26.45 28.6298 26.99Z" stroke="white" stroke-width="1.5" stroke-linecap="round" stroke-linejoin="round"/>
</svg>
