<svg width="24" height="25" viewBox="0 0 24 25" fill="none" xmlns="http://www.w3.org/2000/svg">
<path d="M11.9998 9.82C13.1898 9.82 14.1598 8.85 14.1598 7.66C14.1598 6.47 13.1898 5.5 11.9998 5.5C10.8098 5.5 9.83984 6.47 9.83984 7.66C9.83984 8.85 10.8098 9.82 11.9998 9.82Z" stroke="#9DB2CE" stroke-width="1.5" stroke-linecap="round" stroke-linejoin="round"/>
<path d="M6.78988 19.4999C7.97988 19.4999 8.94988 18.5299 8.94988 17.3399C8.94988 16.1499 7.97988 15.1799 6.78988 15.1799C5.59988 15.1799 4.62988 16.1499 4.62988 17.3399C4.62988 18.5299 5.58988 19.4999 6.78988 19.4999Z" stroke="#9DB2CE" stroke-width="1.5" stroke-linecap="round" stroke-linejoin="round"/>
<path d="M17.2098 19.4999C18.3998 19.4999 19.3698 18.5299 19.3698 17.3399C19.3698 16.1499 18.3998 15.1799 17.2098 15.1799C16.0198 15.1799 15.0498 16.1499 15.0498 17.3399C15.0498 18.5299 16.0198 19.4999 17.2098 19.4999Z" stroke="#9DB2CE" stroke-width="1.5" stroke-linecap="round" stroke-linejoin="round"/>
</svg>
