<svg width="24" height="25" viewBox="0 0 24 25" fill="none" xmlns="http://www.w3.org/2000/svg">
<path opacity="0.97" d="M16.19 2.5H7.81C4.17 2.5 2 4.67 2 8.31V16.68C2 20.33 4.17 22.5 7.81 22.5H16.18C19.82 22.5 21.99 20.33 21.99 16.69V8.31C22 4.67 19.83 2.5 16.19 2.5ZM8.31 16.81C7.59 16.81 7 16.22 7 15.5C7 14.78 7.59 14.19 8.31 14.19C9.03 14.19 9.62 14.78 9.62 15.5C9.62 16.22 9.03 16.81 8.31 16.81ZM12 10.81C11.28 10.81 10.69 10.22 10.69 9.5C10.69 8.78 11.28 8.19 12 8.19C12.72 8.19 13.31 8.78 13.31 9.5C13.31 10.22 12.72 10.81 12 10.81ZM15.69 16.81C14.97 16.81 14.38 16.22 14.38 15.5C14.38 14.78 14.97 14.19 15.69 14.19C16.41 14.19 17 14.78 17 15.5C17 16.22 16.41 16.81 15.69 16.81Z" fill="#292D32"/>
</svg>
