<svg width="42" height="42" viewBox="0 0 42 42" fill="none" xmlns="http://www.w3.org/2000/svg">
<rect width="42" height="42" rx="21" fill="#EEECF3"/>
<path d="M21.018 13.668C17.9839 13.668 15.518 16.1338 15.518 19.168V21.8171C15.518 22.3763 15.2797 23.2288 14.9955 23.7055L13.9414 25.4563C13.2905 26.538 13.7397 27.7388 14.9314 28.1421C18.8822 29.4621 23.1447 29.4621 27.0955 28.1421C28.2047 27.7755 28.6905 26.4646 28.0855 25.4563L27.0314 23.7055C26.7564 23.2288 26.518 22.3763 26.518 21.8171V19.168C26.518 16.143 24.043 13.668 21.018 13.668Z" fill="#616161" stroke="#616161" stroke-width="1.35379" stroke-miterlimit="10" stroke-linecap="round"/>
<path d="M22.7139 13.9333C22.4298 13.8508 22.1364 13.7867 21.8339 13.75C20.9539 13.64 20.1106 13.7042 19.3223 13.9333C19.5881 13.255 20.2481 12.7783 21.0181 12.7783C21.7881 12.7783 22.4481 13.255 22.7139 13.9333Z" fill="#616161" stroke="#616161" stroke-width="1.35379" stroke-miterlimit="10" stroke-linecap="round" stroke-linejoin="round"/>
<path d="M23.7681 28.4717C23.7681 29.9842 22.5306 31.2217 21.0181 31.2217C20.2664 31.2217 19.5697 30.91 19.0747 30.415C18.5797 29.92 18.2681 29.2233 18.2681 28.4717" fill="#616161"/>
<path d="M23.7681 28.4717C23.7681 29.9842 22.5306 31.2217 21.0181 31.2217C20.2664 31.2217 19.5697 30.91 19.0747 30.415C18.5797 29.92 18.2681 29.2233 18.2681 28.4717" stroke="#616161" stroke-width="1.35379" stroke-miterlimit="10"/>
</svg>
