<svg width="42" height="42" viewBox="0 0 42 42" fill="none" xmlns="http://www.w3.org/2000/svg">
<rect width="42" height="42" rx="21" fill="#EEECF3"/>
<path d="M21.8173 25.4102C21.8173 25.8615 21.4514 26.2275 21 26.2275C20.5487 26.2275 20.1828 25.8615 20.1828 25.4102C20.1828 24.9588 20.5487 24.5929 21 24.5929C21.4514 24.5929 21.8173 24.9588 21.8173 25.4102Z" fill="#616161" stroke="#616161" stroke-width="1.35379"/>
<path d="M25.473 20.3391H26.1275L26.6724 20.4072C27.8569 20.5552 28.4895 20.9083 28.8679 21.4531C29.2756 22.0401 29.4894 22.9863 29.4894 24.5572V26.2622C29.4894 28.1175 29.1955 29.0945 28.645 29.645C28.0945 30.1955 27.1175 30.4894 25.2622 30.4894H16.7372C14.8818 30.4894 13.9049 30.1955 13.3544 29.645C12.8038 29.0945 12.5099 28.1175 12.5099 26.2622V24.5572C12.5099 22.9863 12.7237 22.0401 13.1314 21.4531C13.5099 20.9083 14.1425 20.5552 15.327 20.4072L15.9199 20.3331V20.3299H16.0603V20.3391H16.7372H25.2622H25.2626H25.263H25.2635H25.2639H25.2643H25.2647H25.2652H25.2656H25.266H25.2665H25.2669H25.2673H25.2677H25.2682H25.2686H25.269H25.2694H25.2699H25.2703H25.2707H25.2712H25.2716H25.272H25.2724H25.2729H25.2733H25.2737H25.2741H25.2745H25.275H25.2754H25.2758H25.2762H25.2767H25.2771H25.2775H25.2779H25.2784H25.2788H25.2792H25.2796H25.28H25.2805H25.2809H25.2813H25.2817H25.2822H25.2826H25.283H25.2834H25.2838H25.2843H25.2847H25.2851H25.2855H25.2859H25.2864H25.2868H25.2872H25.2876H25.288H25.2884H25.2889H25.2893H25.2897H25.2901H25.2905H25.2909H25.2914H25.2918H25.2922H25.2926H25.293H25.2935H25.2939H25.2943H25.2947H25.2951H25.2955H25.2959H25.2964H25.2968H25.2972H25.2976H25.298H25.2984H25.2989H25.2993H25.2997H25.3001H25.3005H25.3009H25.3013H25.3018H25.3022H25.3026H25.303H25.3034H25.3038H25.3042H25.3046H25.3051H25.3055H25.3059H25.3063H25.3067H25.3071H25.3075H25.3079H25.3084H25.3088H25.3092H25.3096H25.31H25.3104H25.3108H25.3112H25.3116H25.3121H25.3125H25.3129H25.3133H25.3137H25.3141H25.3145H25.3149H25.3153H25.3157H25.3162H25.3166H25.317H25.3174H25.3178H25.3182H25.3186H25.319H25.3194H25.3198H25.3202H25.3206H25.3211H25.3215H25.3219H25.3223H25.3227H25.3231H25.3235H25.3239H25.3243H25.3247H25.3251H25.3255H25.3259H25.3264H25.3268H25.3272H25.3276H25.328H25.3284H25.3288H25.3292H25.3296H25.33H25.3304H25.3308H25.3312H25.3316H25.332H25.3325H25.3329H25.3333H25.3337H25.3341H25.3345H25.3349H25.3353H25.3357H25.3361H25.3365H25.3369H25.3373H25.3377H25.3381H25.3385H25.3389H25.3393H25.3397H25.3402H25.3406H25.341H25.3414H25.3418H25.3422H25.3426H25.343H25.3434H25.3438H25.3442H25.3446H25.345H25.3454H25.3458H25.3462H25.3466H25.347H25.3474H25.3478H25.3482H25.3486H25.349H25.3495H25.3499H25.3503H25.3507H25.3511H25.3515H25.3519H25.3523H25.3527H25.3531H25.3535H25.3539H25.3543H25.3547H25.3551H25.3555H25.3559H25.3563H25.3567H25.3571H25.3575H25.3579H25.3583H25.3587H25.3591H25.3595H25.3599H25.3603H25.3607H25.3611H25.3615H25.3619H25.3624H25.3628H25.3632H25.3636H25.364H25.3644H25.3648H25.3652H25.3656H25.366H25.3664H25.3668H25.3672H25.3676H25.368H25.3684H25.3688H25.3692H25.3696H25.37H25.3704H25.3708H25.3712H25.3716H25.372H25.3724H25.3728H25.3732H25.3736H25.374H25.3744H25.3748H25.3752H25.3756H25.3761H25.3765H25.3769H25.3773H25.3777H25.3781H25.3785H25.3789H25.3793H25.3797H25.3801H25.3805H25.3809H25.3813H25.3817H25.3821H25.3825H25.3829H25.3833H25.3837H25.3841H25.3845H25.3849H25.3853H25.3857H25.3861H25.3865H25.3869H25.3873H25.3877H25.3882H25.3886H25.389H25.3894H25.3898H25.3902H25.3906H25.391H25.3914H25.3918H25.3922H25.3926H25.393H25.3934H25.3938H25.3942H25.3946H25.395H25.3954H25.3958H25.3962H25.3966H25.397H25.3975H25.3979H25.3983H25.3987H25.3991H25.3995H25.3999H25.4003H25.4007H25.4011H25.4015H25.4019H25.4023H25.4027H25.4031H25.4035H25.4039H25.4044H25.4048H25.4052H25.4056H25.406H25.4064H25.4068H25.4072H25.4076H25.408H25.4084H25.4088H25.4092H25.4096H25.41H25.4105H25.4109H25.4113H25.4117H25.4121H25.4125H25.4129H25.4133H25.4137H25.4141H25.4145H25.4149H25.4153H25.4158H25.4162H25.4166H25.417H25.4174H25.4178H25.4182H25.4186H25.419H25.4194H25.4198H25.4203H25.4207H25.4211H25.4215H25.4219H25.4223H25.4227H25.4231H25.4235H25.424H25.4244H25.4248H25.4252H25.4256H25.426H25.4264H25.4268H25.4272H25.4277H25.4281H25.4285H25.4289H25.4293H25.4297H25.4301H25.4305H25.431H25.4314H25.4318H25.4322H25.4326H25.433H25.4334H25.4338H25.4343H25.4347H25.4351H25.4355H25.4359H25.4363H25.4367H25.4372H25.4376H25.438H25.4384H25.4388H25.4392H25.4396H25.4401H25.4405H25.4409H25.4413H25.4417H25.4421H25.4426H25.443H25.4434H25.4438H25.4442H25.4446H25.4451H25.4455H25.4459H25.4463H25.4467H25.4472H25.4476H25.448H25.4484H25.4488H25.4492H25.4497H25.4501H25.4505H25.4509H25.4513H25.4518H25.4522H25.4526H25.453H25.4534H25.4539H25.4543H25.4547H25.4551H25.4556H25.456H25.4564H25.4568H25.4572H25.4577H25.4581H25.4585H25.4589H25.4594H25.4598H25.4602H25.4606H25.4611H25.4615H25.4619H25.4623H25.4628H25.4632H25.4636H25.464H25.4645H25.4649H25.4653H25.4657H25.4662H25.4666H25.467H25.4674H25.4679H25.4683H25.4687H25.4691H25.4696H25.47H25.4704H25.4709H25.4713H25.4717H25.4721H25.4726H25.473ZM17.5544 25.4097C17.5544 27.3037 19.0935 28.8549 20.9997 28.8549C22.9043 28.8549 24.4449 27.3143 24.4449 25.4097C24.4449 23.5142 22.8952 21.9644 20.9997 21.9644C19.1056 21.9644 17.5544 23.5035 17.5544 25.4097Z" fill="#616161" stroke="#616161" stroke-width="1.35379"/>
</svg>
