<svg width="42" height="42" viewBox="0 0 42 42" fill="none" xmlns="http://www.w3.org/2000/svg">
<rect width="42" height="42" rx="21" fill="#EEECF3"/>
<path d="M26.092 17.4437C26.0125 17.4366 25.9329 17.4366 25.8534 17.4437C24.8202 17.387 24.005 16.533 24.005 15.4822C24.005 14.397 24.886 13.5099 25.9773 13.5099C27.0618 13.5099 27.9484 14.3897 27.9496 15.48C27.9417 16.5339 27.1238 17.3871 26.092 17.4437Z" fill="#616161" stroke="#616161" stroke-width="1.35379"/>
<path d="M28.6813 23.9127L28.681 23.9129C28.0244 24.3526 27.1344 24.5974 26.2164 24.6197C26.3854 24.0343 26.4737 23.4191 26.4803 22.7866L26.4804 22.7866V22.7795C26.4804 22.113 26.3841 21.4633 26.1947 20.8519C27.1225 20.8715 28.0119 21.1164 28.6741 21.556L28.6741 21.556L28.6763 21.5574C29.2591 21.941 29.4583 22.3799 29.459 22.7315C29.4596 23.0838 29.2612 23.5249 28.6813 23.9127Z" fill="#616161" stroke="#616161" stroke-width="1.35379"/>
<path d="M15.9033 18.1222C15.9675 18.113 16.0316 18.113 16.0958 18.1222C17.5166 18.0763 18.6441 16.9122 18.6441 15.4822C18.6441 14.0155 17.4616 12.833 15.995 12.833C14.5375 12.833 13.355 14.0155 13.355 15.4822C13.355 16.9122 14.4825 18.0763 15.9033 18.1222Z" fill="#616161"/>
<path d="M16.004 22.7797C16.004 23.6689 16.1965 24.5122 16.5449 25.273C15.2524 25.4105 13.9049 25.1355 12.9149 24.4847C11.4665 23.5222 11.4665 21.9547 12.9149 20.9922C13.8957 20.3322 15.2799 20.0664 16.5815 20.213C16.2057 20.983 16.004 21.8539 16.004 22.7797Z" fill="#616161"/>
<path d="M21.1099 25.5475C21.0366 25.5383 20.9541 25.5383 20.8716 25.5475C19.1849 25.4925 17.8374 24.1083 17.8374 22.4033C17.8466 20.6617 19.2491 19.25 20.9999 19.25C22.7416 19.25 24.1532 20.6617 24.1532 22.4033C24.1441 24.1083 22.8057 25.4925 21.1099 25.5475Z" fill="#616161"/>
<path d="M18.1309 27.4449C16.7467 28.3708 16.7467 29.8924 18.1309 30.8091C19.7076 31.8633 22.2926 31.8633 23.8692 30.8091C25.2534 29.8833 25.2534 28.3616 23.8692 27.4449C22.3017 26.3908 19.7167 26.3908 18.1309 27.4449Z" fill="#616161"/>
</svg>
