<svg width="42" height="42" viewBox="0 0 42 42" fill="none" xmlns="http://www.w3.org/2000/svg">
<rect width="42" height="42" rx="21" fill="#EEECF3"/>
<path d="M26.5106 18.333V19.5149C26.5035 19.5145 26.4965 19.5141 26.4894 19.5136V18.333C26.4894 16.8588 26.2893 15.4452 25.4245 14.41C24.5365 13.347 23.0914 12.8436 21 12.8436C18.9086 12.8436 17.4635 13.347 16.5755 14.41C15.7107 15.4452 15.5106 16.8588 15.5106 18.333V19.5136C15.5035 19.5141 15.4965 19.5145 15.4894 19.5149V18.333C15.4894 17.0326 15.6529 15.6666 16.3804 14.6316C17.0733 13.6457 18.3809 12.8224 21 12.8224C23.6191 12.8224 24.9267 13.6457 25.6196 14.6316C26.3471 15.6666 26.5106 17.0326 26.5106 18.333Z" fill="#616161" stroke="#616161" stroke-width="1.35379"/>
<path d="M27.0957 20.9284L27.0957 20.9284L27.1055 20.9296C28.1777 21.06 28.6861 21.3643 28.9838 21.8278C29.3213 22.3532 29.4894 23.2268 29.4894 24.7493V26.5827C29.4894 28.4209 29.2433 29.2985 28.771 29.7707C28.2988 30.243 27.4212 30.4891 25.583 30.4891H16.4163C14.5782 30.4891 13.7006 30.243 13.2283 29.7707C12.7561 29.2985 12.5099 28.4209 12.5099 26.5827V24.7493C12.5099 23.2268 12.6781 22.3532 13.0156 21.8278C13.3132 21.3643 13.8216 21.06 14.8939 20.9296L14.8939 20.9297L14.9036 20.9284C15.2697 20.8785 15.6973 20.8519 16.1933 20.8429H25.8061C26.302 20.8519 26.7297 20.8785 27.0957 20.9284ZM18.4494 26.8082L18.4627 26.7957L18.4752 26.7824C18.7513 26.491 18.9266 26.089 18.9266 25.666C18.9266 25.4442 18.8759 25.2366 18.8012 25.0573C18.7249 24.8743 18.6188 24.7088 18.487 24.5624L18.4751 24.5491L18.4625 24.5365C18.0166 24.0907 17.3249 23.9445 16.7288 24.1959C16.5173 24.2794 16.36 24.3945 16.2294 24.512L16.2029 24.5359L16.179 24.5624C16.0472 24.7088 15.9411 24.8743 15.8648 25.0573C15.7902 25.2366 15.7394 25.4442 15.7394 25.666C15.7394 26.089 15.9148 26.491 16.1908 26.7824L16.2093 26.8019L16.2294 26.82C16.3608 26.9383 16.5194 27.0541 16.7329 27.1377C16.9101 27.2104 17.1147 27.2596 17.333 27.2596C17.756 27.2596 18.158 27.0843 18.4494 26.8082ZM22.116 26.8082L22.1356 26.7897L22.1536 26.7697C22.2855 26.6232 22.3916 26.4577 22.4678 26.2747C22.5425 26.0955 22.5932 25.8879 22.5932 25.666C22.5932 25.2305 22.4154 24.8383 22.1419 24.5496L22.1325 24.5397L22.1227 24.5302C21.5151 23.9386 20.4772 23.9296 19.8702 24.5365L19.8637 24.543L19.8574 24.5497C19.584 24.8383 19.4061 25.2305 19.4061 25.666C19.4061 25.8879 19.4568 26.0955 19.5315 26.2747C19.6078 26.4577 19.7139 26.6232 19.8457 26.7697L19.8637 26.7897L19.8833 26.8082C20.172 27.0817 20.5641 27.2596 20.9997 27.2596C21.4226 27.2596 21.8247 27.0843 22.116 26.8082ZM25.7827 26.8082L25.796 26.7957L25.8086 26.7824C26.0846 26.491 26.2599 26.089 26.2599 25.666C26.2599 25.5608 26.2443 25.4532 26.2364 25.3982C26.2358 25.3942 26.2353 25.3904 26.2348 25.387L26.2337 25.3792L26.2324 25.3714C26.2138 25.2598 26.18 25.1548 26.1354 25.0574C26.0999 24.9632 26.0486 24.8618 25.9762 24.7653C25.928 24.6951 25.8818 24.6373 25.8496 24.5972L25.8457 24.5923L25.8223 24.5631L25.7958 24.5365C25.1888 23.9296 24.1509 23.9386 23.5433 24.5302L23.5335 24.5397L23.5241 24.5496C23.2506 24.8383 23.0728 25.2305 23.0728 25.666C23.0728 26.1016 23.2506 26.4937 23.5241 26.7824L23.5367 26.7957L23.55 26.8082C23.8413 27.0843 24.2434 27.2596 24.6663 27.2596C25.0893 27.2596 25.4914 27.0843 25.7827 26.8082Z" fill="#616161" stroke="#616161" stroke-width="1.35379"/>
</svg>
