<svg width="42" height="42" viewBox="0 0 42 42" fill="none" xmlns="http://www.w3.org/2000/svg">
<rect width="42" height="42" rx="21" fill="#EEECF3"/>
<path d="M19.7172 30.1873L19.7165 30.1869L14.9973 27.4576C14.0044 26.7887 13.6516 26.5018 13.4779 26.1994C13.3149 25.9157 13.2711 25.549 13.2711 24.4845V19.507C13.2711 18.4419 13.3148 18.0768 13.4744 17.797C13.6437 17.5003 13.9863 17.221 14.9609 16.5612L19.7245 13.8144C19.7245 13.8144 19.7246 13.8144 19.7247 13.8143C20.0542 13.6247 20.5137 13.5128 21.0047 13.5128C21.4954 13.5128 21.9547 13.6246 22.2842 13.8141C22.2844 13.8142 22.2846 13.8143 22.2848 13.8144L27.0029 16.543C27.9972 17.2128 28.3494 17.4973 28.5229 17.7978C28.6851 18.0787 28.729 18.442 28.729 19.507V24.4936C28.729 25.5587 28.6853 25.9238 28.5257 26.2036C28.3565 26.5004 28.0139 26.7796 27.0392 27.4394L22.2753 30.1864L22.2753 30.1864L22.2686 30.1903C21.9496 30.3791 21.4901 30.4901 21.0001 30.4901C20.5117 30.4901 20.049 30.3798 19.7172 30.1873ZM17.344 22.0003C17.344 24.015 18.9854 25.6564 21.0001 25.6564C23.0147 25.6564 24.6561 24.015 24.6561 22.0003C24.6561 19.9856 23.0147 18.3443 21.0001 18.3443C18.9854 18.3443 17.344 19.9856 17.344 22.0003Z" fill="#616161" stroke="#616161" stroke-width="1.35379"/>
</svg>
