<svg width="42" height="42" viewBox="0 0 42 42" fill="none" xmlns="http://www.w3.org/2000/svg">
<rect width="42" height="42" rx="21" fill="#EEECF3"/>
<path d="M26.6925 14.6212L22.1635 12.9239C21.4102 12.6426 20.1758 12.6426 19.4225 12.9239L14.8935 14.6212C13.8497 15.0114 12.9966 16.2458 12.9966 17.3531V24.0967C12.9966 25.1677 13.7045 26.5745 14.5668 27.2189L18.4695 30.1323C19.7493 31.0944 21.8549 31.0944 23.1347 30.1323L27.0374 27.2189C27.8997 26.5745 28.6076 25.1677 28.6076 24.0967V17.3531C28.5894 16.2458 27.7363 15.0114 26.6925 14.6212ZM20.7295 17.2714C21.8005 17.2714 22.6718 18.1427 22.6718 19.2137C22.6718 20.2665 21.8458 21.1106 20.8021 21.1469H20.7839H20.7658C20.7476 21.1469 20.7295 21.1469 20.7113 21.1469C19.6222 21.1106 18.8053 20.2665 18.8053 19.2137C18.7963 18.1427 19.6676 17.2714 20.7295 17.2714ZM22.7807 25.7395C22.227 26.1025 21.51 26.2931 20.793 26.2931C20.076 26.2931 19.3499 26.1116 18.8053 25.7395C18.288 25.3946 18.0066 24.9226 17.9976 24.4053C17.9976 23.897 18.288 23.4069 18.8053 23.062C19.9035 22.3359 21.6916 22.3359 22.7898 23.062C23.3071 23.4069 23.5975 23.8788 23.5975 24.3962C23.5885 24.9045 23.298 25.3946 22.7807 25.7395Z" fill="#616161"/>
</svg>
