<svg width="42" height="42" viewBox="0 0 42 42" fill="none" xmlns="http://www.w3.org/2000/svg">
<rect width="42" height="42" rx="21" fill="#F7CECE"/>
<path d="M17.2235 21.0638C17.2235 20.688 17.5352 20.3763 17.911 20.3763H22.9344V12.6213C22.9252 12.1813 22.5769 11.833 22.1369 11.833C16.7377 11.833 12.9702 15.6005 12.9702 20.9997C12.9702 26.3988 16.7377 30.1663 22.1369 30.1663C22.5677 30.1663 22.9252 29.818 22.9252 29.378V21.7422H17.911C17.526 21.7513 17.2235 21.4397 17.2235 21.0638Z" fill="#ED3A3A"/>
<path d="M28.8281 20.5785L26.2248 17.966C25.959 17.7001 25.519 17.7001 25.2531 17.966C24.9873 18.2318 24.9873 18.6718 25.2531 18.9376L26.6831 20.3676H22.9248V21.7426H26.674L25.244 23.1726C24.9781 23.4385 24.9781 23.8785 25.244 24.1443C25.3815 24.2818 25.5556 24.346 25.7298 24.346C25.904 24.346 26.0781 24.2818 26.2156 24.1443L28.819 21.5318C29.094 21.2751 29.094 20.8443 28.8281 20.5785Z" fill="#ED3A3A"/>
</svg>
