<svg width="25" height="25" viewBox="0 0 25 25" fill="none" xmlns="http://www.w3.org/2000/svg">
<path d="M3.50977 11.72V16.21C3.50977 20.7 5.30977 22.5 9.79977 22.5H15.1898C19.6798 22.5 21.4798 20.7 21.4798 16.21V11.72" stroke="#9DB2CE" stroke-width="1.5" stroke-linecap="round" stroke-linejoin="round"/>
<path d="M12.5 12.5C14.33 12.5 15.68 11.01 15.5 9.18L14.84 2.5H10.17L9.49999 9.18C9.31999 11.01 10.67 12.5 12.5 12.5Z" stroke="#9DB2CE" stroke-width="1.5" stroke-linecap="round" stroke-linejoin="round"/>
<path d="M18.8098 12.5C20.8298 12.5 22.3098 10.86 22.1098 8.85L21.8298 6.1C21.4698 3.5 20.4698 2.5 17.8498 2.5H14.7998L15.4998 9.51C15.6698 11.16 17.1598 12.5 18.8098 12.5Z" stroke="#9DB2CE" stroke-width="1.5" stroke-linecap="round" stroke-linejoin="round"/>
<path d="M6.13988 12.5C7.78988 12.5 9.27988 11.16 9.43988 9.51L9.65988 7.3L10.1399 2.5H7.08988C4.46988 2.5 3.46988 3.5 3.10988 6.1L2.83988 8.85C2.63988 10.86 4.11988 12.5 6.13988 12.5Z" stroke="#9DB2CE" stroke-width="1.5" stroke-linecap="round" stroke-linejoin="round"/>
<path d="M12.5 17.5C10.83 17.5 10 18.33 10 20V22.5H15V20C15 18.33 14.17 17.5 12.5 17.5Z" stroke="#9DB2CE" stroke-width="1.5" stroke-linecap="round" stroke-linejoin="round"/>
</svg>
