<svg width="25" height="25" viewBox="0 0 25 25" fill="none" xmlns="http://www.w3.org/2000/svg">
<path d="M22.8596 8.77L22.5696 6C22.1496 2.98 20.7796 1.75 17.8497 1.75H15.4896H14.0097H10.9697H9.48965H7.08965C4.14965 1.75 2.78965 2.98 2.35965 6.03L2.08965 8.78C1.98965 9.85 2.27965 10.89 2.90965 11.7C3.66965 12.69 4.83965 13.25 6.13965 13.25C7.39965 13.25 8.60965 12.62 9.36965 11.61C10.0496 12.62 11.2097 13.25 12.4997 13.25C13.7896 13.25 14.9197 12.65 15.6096 11.65C16.3797 12.64 17.5696 13.25 18.8096 13.25C20.1396 13.25 21.3396 12.66 22.0896 11.62C22.6896 10.82 22.9597 9.81 22.8596 8.77Z" fill="#292D32"/>
<path d="M11.8501 17.1602C10.5801 17.2902 9.62012 18.3702 9.62012 19.6502V22.3902C9.62012 22.6602 9.84012 22.8802 10.1101 22.8802H14.8801C15.1501 22.8802 15.3701 22.6602 15.3701 22.3902V20.0002C15.3801 17.9102 14.1501 16.9202 11.8501 17.1602Z" fill="#292D32"/>
<path d="M21.8699 14.9001V17.8801C21.8699 20.6401 19.6299 22.8801 16.8699 22.8801C16.5999 22.8801 16.3799 22.6601 16.3799 22.3901V20.0001C16.3799 18.7201 15.9899 17.7201 15.2299 17.0401C14.5599 16.4301 13.6499 16.1301 12.5199 16.1301C12.2699 16.1301 12.0199 16.1401 11.7499 16.1701C9.96988 16.3501 8.61988 17.8501 8.61988 19.6501V22.3901C8.61988 22.6601 8.39988 22.8801 8.12988 22.8801C5.36988 22.8801 3.12988 20.6401 3.12988 17.8801V14.9201C3.12988 14.2201 3.81988 13.7501 4.46988 13.9801C4.73988 14.0701 5.00988 14.1401 5.28988 14.1801C5.40988 14.2001 5.53988 14.2201 5.65988 14.2201C5.81988 14.2401 5.97988 14.2501 6.13988 14.2501C7.29988 14.2501 8.43988 13.8201 9.33988 13.0801C10.1999 13.8201 11.3199 14.2501 12.4999 14.2501C13.6899 14.2501 14.7899 13.8401 15.6499 13.1001C16.5499 13.8301 17.6699 14.2501 18.8099 14.2501C18.9899 14.2501 19.1699 14.2401 19.3399 14.2201C19.4599 14.2101 19.5699 14.2001 19.6799 14.1801C19.9899 14.1401 20.2699 14.0501 20.5499 13.9601C21.1999 13.7401 21.8699 14.2201 21.8699 14.9001Z" fill="#292D32"/>
</svg>
