<svg width="42" height="42" viewBox="0 0 42 42" fill="none" xmlns="http://www.w3.org/2000/svg">
<rect width="42" height="42" rx="21" fill="#EEECF3"/>
<path d="M26.5 13.5099H15.5C14.3462 13.5099 13.4269 14.4319 13.4269 15.5555V25.5563C13.4269 26.6799 14.3462 27.6019 15.5 27.6019H16.1967C17.1051 27.6019 17.9744 27.9542 18.6172 28.5962C18.6177 28.5967 18.6181 28.5972 18.6186 28.5977L20.183 30.1438L26.5 13.5099ZM26.5 13.5099C27.6537 13.5099 28.5731 14.4319 28.5731 15.5555V25.5563C28.5731 26.6799 27.6537 27.6019 26.5 27.6019H25.8125C24.9144 27.6019 24.0356 27.9534 23.392 28.5963C23.3915 28.5968 23.391 28.5972 23.3905 28.5977L21.8261 30.1438M26.5 13.5099L21.8261 30.1438M21.8261 30.1438L21.8259 30.1441C21.3745 30.5893 20.6346 30.5893 20.1833 30.1441L21.8261 30.1438ZM19.515 22.2486H19.1119C19.5411 21.9491 20.0634 21.5443 20.4285 20.9678C20.1854 21.5262 20.2243 22.1738 20.534 22.7066L20.534 22.7066L20.5375 22.7126C20.5376 22.7127 20.5377 22.7128 20.5377 22.713C20.2871 22.4288 19.9208 22.2486 19.515 22.2486ZM22.2192 23.6666H23.3397C23.3633 24.396 23.9685 24.9866 24.7033 24.9866C25.453 24.9866 26.0677 24.3718 26.0677 23.6222V23.5778C26.5758 23.385 26.9477 22.8979 26.9477 22.3113C26.9477 21.7285 26.5762 21.2273 26.0586 21.033V18.4022C26.0702 17.5377 25.4932 16.804 24.6951 16.566L24.6952 16.5659L24.6846 16.563C23.8752 16.3358 23.0072 16.6631 22.5533 17.3866L22.5515 17.3894C21.9188 18.4088 21.2288 19.5683 20.6245 20.6056C20.7816 20.259 20.8794 19.8593 20.8794 19.3963C20.8794 17.785 19.5772 16.4828 17.9658 16.4828C16.3527 16.4828 15.0523 17.796 15.0523 19.3963C15.0523 20.146 15.667 20.7607 16.4167 20.7607C16.4368 20.7607 16.4569 20.7603 16.4768 20.7594C15.9769 21.1721 15.4798 21.72 15.2233 22.5042L15.2207 22.5122L15.2183 22.5202C15.0517 23.0756 15.1317 23.6826 15.4938 24.1767C15.8586 24.6803 16.4371 24.9774 17.0583 24.9774H19.515C20.2647 24.9774 20.8794 24.3627 20.8794 23.613C20.8794 23.3764 20.8182 23.1533 20.7108 22.9586C21.0755 23.4002 21.6211 23.6666 22.21 23.6666H22.2101H22.2101H22.2102H22.2102H22.2103H22.2103H22.2104H22.2104H22.2105H22.2105H22.2106H22.2106H22.2107H22.2107H22.2108H22.2108H22.2109H22.2109H22.211H22.211H22.2111H22.2111H22.2112H22.2112H22.2113H22.2113H22.2114H22.2114H22.2115H22.2115H22.2116H22.2116H22.2117H22.2117H22.2118H22.2118H22.2118H22.2119H22.2119H22.212H22.212H22.2121H22.2121H22.2122H22.2122H22.2123H22.2123H22.2123H22.2124H22.2124H22.2125H22.2125H22.2126H22.2126H22.2126H22.2127H22.2127H22.2128H22.2128H22.2129H22.2129H22.2129H22.213H22.213H22.2131H22.2131H22.2131H22.2132H22.2132H22.2133H22.2133H22.2133H22.2134H22.2134H22.2135H22.2135H22.2135H22.2136H22.2136H22.2137H22.2137H22.2137H22.2138H22.2138H22.2138H22.2139H22.2139H22.214H22.214H22.214H22.2141H22.2141H22.2141H22.2142H22.2142H22.2142H22.2143H22.2143H22.2144H22.2144H22.2144H22.2145H22.2145H22.2145H22.2146H22.2146H22.2146H22.2147H22.2147H22.2147H22.2148H22.2148H22.2148H22.2149H22.2149H22.2149H22.215H22.215H22.215H22.2151H22.2151H22.2151H22.2151H22.2152H22.2152H22.2152H22.2153H22.2153H22.2153H22.2154H22.2154H22.2154H22.2154H22.2155H22.2155H22.2155H22.2156H22.2156H22.2156H22.2156H22.2157H22.2157H22.2157H22.2158H22.2158H22.2158H22.2158H22.2159H22.2159H22.2159H22.216H22.216H22.216H22.216H22.2161H22.2161H22.2161H22.2161H22.2162H22.2162H22.2162H22.2162H22.2163H22.2163H22.2163H22.2163H22.2164H22.2164H22.2164H22.2164H22.2165H22.2165H22.2165H22.2165H22.2166H22.2166H22.2166H22.2166H22.2166H22.2167H22.2167H22.2167H22.2167H22.2168H22.2168H22.2168H22.2168H22.2168H22.2169H22.2169H22.2169H22.2169H22.2169H22.217H22.217H22.217H22.217H22.2171H22.2171H22.2171H22.2171H22.2171H22.2172H22.2172H22.2172H22.2172H22.2172H22.2172H22.2173H22.2173H22.2173H22.2173H22.2173H22.2174H22.2174H22.2174H22.2174H22.2174H22.2174H22.2175H22.2175H22.2175H22.2175H22.2175H22.2176H22.2176H22.2176H22.2176H22.2176H22.2176H22.2177H22.2177H22.2177H22.2177H22.2177H22.2177H22.2177H22.2178H22.2178H22.2178H22.2178H22.2178H22.2178H22.2179H22.2179H22.2179H22.2179H22.2179H22.2179H22.2179H22.218H22.218H22.218H22.218H22.218H22.218H22.218H22.218H22.2181H22.2181H22.2181H22.2181H22.2181H22.2181H22.2181H22.2181H22.2182H22.2182H22.2182H22.2182H22.2182H22.2182H22.2182H22.2182H22.2183H22.2183H22.2183H22.2183H22.2183H22.2183H22.2183H22.2183H22.2183H22.2184H22.2184H22.2184H22.2184H22.2184H22.2184H22.2184H22.2184H22.2184H22.2184H22.2185H22.2185H22.2185H22.2185H22.2185H22.2185H22.2185H22.2185H22.2185H22.2185H22.2186H22.2186H22.2186H22.2186H22.2186H22.2186H22.2186H22.2186H22.2186H22.2186H22.2186H22.2186H22.2187H22.2187H22.2187H22.2187H22.2187H22.2187H22.2187H22.2187H22.2187H22.2187H22.2187H22.2188H22.2188H22.2188H22.2188H22.2188H22.2188H22.2188H22.2188H22.2189H22.2189H22.2189H22.2189H22.2189H22.2189H22.2189H22.2189H22.2189H22.2189H22.219H22.219H22.219H22.219H22.219H22.219H22.219H22.219H22.219H22.219H22.219H22.2191H22.2191H22.2191H22.2191H22.2191H22.2191H22.2191H22.2191H22.2191H22.2191H22.2191H22.2191H22.2191H22.2192H22.2192ZM18.1414 19.3872C18.1414 19.4404 18.1349 19.4924 18.0283 19.6053C17.9494 19.6888 17.8407 19.7788 17.6877 19.8906C17.7479 19.7371 17.7811 19.5704 17.7811 19.3963C17.7811 19.2746 17.8725 19.2024 17.9567 19.2024C18.0595 19.2024 18.1414 19.2843 18.1414 19.3872Z" fill="#616161" stroke="#616161" stroke-width="1.35379"/>
<mask id="path-3-inside-1_16_2547" fill="white">
<path d="M24.0158 21.6149V18.9199C23.475 19.7999 22.9158 20.7441 22.4116 21.6058H24.0158V21.6149Z"/>
</mask>
<path d="M24.0158 21.6149V18.9199C23.475 19.7999 22.9158 20.7441 22.4116 21.6058H24.0158V21.6149Z" fill="#616161"/>
<path d="M24.0158 18.9199H25.3696V14.1316L22.8624 18.2111L24.0158 18.9199ZM22.4116 21.6058L21.2431 20.9221L20.051 22.9595H22.4116V21.6058ZM24.0158 21.6058H25.3696V20.252H24.0158V21.6058ZM25.3696 21.6149V18.9199H22.662V21.6149H25.3696ZM22.8624 18.2111C22.3142 19.1031 21.7494 20.0569 21.2431 20.9221L23.5801 22.2894C24.0822 21.4313 24.6358 20.4967 25.1692 19.6288L22.8624 18.2111ZM22.4116 22.9595H24.0158V20.252H22.4116V22.9595ZM22.662 21.6058V21.6149H25.3696V21.6058H22.662Z" fill="#616161" mask="url(#path-3-inside-1_16_2547)"/>
</svg>
