<svg width="42" height="42" viewBox="0 0 42 42" fill="none" xmlns="http://www.w3.org/2000/svg">
<rect width="42" height="42" rx="21" fill="#EEECF3"/>
<path d="M26.3159 28.5776C25.8129 28.0381 25.148 27.7632 24.4714 27.8C23.7949 27.8369 23.1639 28.1823 22.7223 28.771L22.7218 28.7717L21.7983 30.0061C21.7979 30.0066 21.7976 30.0071 21.7972 30.0076C21.5348 30.3534 21.2384 30.4734 20.9951 30.4734C20.7518 30.4734 20.4554 30.3534 20.193 30.0076C20.1926 30.0071 20.1922 30.0066 20.1919 30.0061L19.2685 28.772C19.2685 28.7719 19.2684 28.7718 19.2683 28.7717C18.3658 27.5644 16.7308 27.4749 15.6928 28.5676L15.6902 28.5702L15.6817 28.5787L15.6736 28.5874C15.3066 28.9813 14.9928 29.2026 14.7534 29.306C14.5207 29.4065 14.4009 29.3805 14.3477 29.3576C14.2896 29.3325 14.1755 29.2523 14.0693 28.9917C13.9621 28.729 13.8849 28.3297 13.8849 27.7747V17.453C13.8849 15.5956 14.1181 14.6992 14.5663 14.2201C14.9994 13.7571 15.8035 13.5099 17.5347 13.5099H24.4647C26.1961 13.5099 26.9996 13.7572 27.4315 14.2197C27.8783 14.6981 28.1099 15.5938 28.1053 17.4513V17.453V27.7655C28.1053 28.321 28.0286 28.7206 27.9218 28.9836C27.8159 29.2445 27.7024 29.324 27.6454 29.3486C27.5933 29.3711 27.4741 29.3975 27.2404 29.2967C27.0002 29.1931 26.6852 28.9716 26.3159 28.5776ZM26.3159 28.5776C26.3162 28.5778 26.3164 28.578 26.3166 28.5782L25.8214 29.0396L26.3153 28.5769C26.3155 28.5771 26.3157 28.5773 26.3159 28.5776ZM18.2497 22.4474H23.7497C24.4993 22.4474 25.1141 21.8327 25.1141 21.083C25.1141 20.3333 24.4993 19.7186 23.7497 19.7186H18.2497C17.5 19.7186 16.8853 20.3333 16.8853 21.083C16.8853 21.8327 17.5 22.4474 18.2497 22.4474ZM17.333 18.7807H24.6663C25.416 18.7807 26.0307 18.166 26.0307 17.4163C26.0307 16.6667 25.416 16.0519 24.6663 16.0519H17.333C16.5833 16.0519 15.9686 16.6667 15.9686 17.4163C15.9686 18.166 16.5833 18.7807 17.333 18.7807Z" fill="#616161" stroke="#616161" stroke-width="1.35379"/>
</svg>
