<svg width="42" height="42" viewBox="0 0 42 42" fill="none" xmlns="http://www.w3.org/2000/svg">
<rect width="42" height="42" rx="21" fill="#EEECF3"/>
<path d="M20.7926 12.7061C18.4147 12.7061 16.4814 14.6393 16.4814 17.0172C16.4814 19.3498 18.3058 21.2377 20.6837 21.3193C20.7563 21.3103 20.8289 21.3103 20.8834 21.3193C20.9015 21.3193 20.9106 21.3193 20.9288 21.3193C20.9378 21.3193 20.9378 21.3193 20.9469 21.3193C23.2704 21.2377 25.0947 19.3498 25.1038 17.0172C25.1038 14.6393 23.1706 12.7061 20.7926 12.7061Z" fill="#616161"/>
<path d="M25.4036 23.7329C22.8714 22.0448 18.7417 22.0448 16.1913 23.7329C15.0387 24.5044 14.4033 25.5482 14.4033 26.6645C14.4033 27.7809 15.0387 28.8156 16.1822 29.578C17.4529 30.4311 19.1229 30.8577 20.7929 30.8577C22.463 30.8577 24.133 30.4311 25.4036 29.578C26.5472 28.8065 27.1826 27.7718 27.1826 26.6464C27.1735 25.53 26.5472 24.4953 25.4036 23.7329Z" fill="#616161"/>
</svg>
