<svg width="42" height="42" viewBox="0 0 42 42" fill="none" xmlns="http://www.w3.org/2000/svg">
<rect width="42" height="42" rx="21" fill="#EEECF3"/>
<path d="M29.3696 23.2702V24.1778C29.3696 24.4229 29.179 24.6226 28.9248 24.6316H27.5997C27.1187 24.6316 26.683 24.2777 26.6467 23.8057C26.6195 23.5243 26.7284 23.2611 26.9099 23.0796C27.0733 22.9072 27.3002 22.8164 27.5453 22.8164H28.9158C29.179 22.8255 29.3696 23.0252 29.3696 23.2702Z" fill="#616161"/>
<path d="M26.2294 22.4077C25.7756 22.8525 25.5577 23.515 25.7393 24.2048C25.9752 25.0489 26.8012 25.5844 27.6725 25.5844H28.4621C28.9613 25.5844 29.3697 25.9928 29.3697 26.492V26.6645C29.3697 28.5432 27.8359 30.0771 25.9571 30.0771H15.5376C13.6589 30.0771 12.125 28.5432 12.125 26.6645V20.5562C12.125 19.4398 12.6605 18.4505 13.4864 17.8333C14.0582 17.3977 14.7662 17.1436 15.5376 17.1436H25.9571C27.8359 17.1436 29.3697 18.6774 29.3697 20.5562V20.9555C29.3697 21.4547 28.9613 21.8632 28.4621 21.8632H27.5363C27.0281 21.8632 26.5652 22.0628 26.2294 22.4077Z" fill="#616161"/>
<path d="M24.6049 15.2655C24.85 15.5106 24.6412 15.8918 24.2963 15.8918L17.3258 15.8827C16.9265 15.8827 16.7177 15.3926 17.0082 15.1112L18.4785 13.6318C19.7219 12.3975 21.7368 12.3975 22.9803 13.6318L24.5686 15.2383C24.5777 15.2474 24.5958 15.2565 24.6049 15.2655Z" fill="#616161"/>
</svg>
